<svg xmlns="http://www.w3.org/2000/svg" width="810" viewBox="0 0 810 540" height="540" version="1.0"><defs><clipPath id="a"><path d="M 0.75 0 L 809.25 0 L 809.25 539 L 0.75 539 Z M 0.75 0"/></clipPath><clipPath id="b"><path d="M 326 194.101562 L 484 194.101562 L 484 369.277344 L 326 369.277344 Z M 326 194.101562"/></clipPath></defs><g clip-path="url(#a)"><path fill="#FFF" d="M 0.75 0 L 809.25 0 L 809.25 546.488281 L 0.75 546.488281 Z M 0.75 0"/><path fill="#FFF" d="M 0.75 0 L 809.25 0 L 809.25 539 L 0.75 539 Z M 0.75 0"/><path d="M 0.75 0 L 809.25 0 L 809.25 539 L 0.75 539 Z M 0.75 0"/></g><g clip-path="url(#b)"><path fill="#EB2F06" d="M 326.425781 369.277344 L 384.6875 369.277344 L 384.6875 284.097656 L 434.023438 284.097656 L 434.023438 211.234375 L 466.238281 211.234375 L 466.238281 352.117188 L 434.023438 352.117188 L 434.023438 327.476562 L 433.773438 301.785156 L 416.628906 301.785156 L 416.90625 327.476562 L 416.90625 369.277344 L 483.386719 369.277344 L 483.386719 194.101562 L 416.90625 194.101562 L 416.90625 266.964844 L 367.542969 266.964844 L 367.542969 352.117188 L 343.542969 352.117188 L 343.542969 211.234375 L 367.542969 211.234375 L 367.542969 250.644531 L 384.6875 250.644531 L 384.6875 194.101562 L 326.425781 194.101562 Z M 326.425781 369.277344" fill-rule="evenodd"/></g></svg>